<?xml version="1.0" standalone="no"?>
<!DOCTYPE svg PUBLIC "-//W3C//DTD SVG 20010904//EN"
 "http://www.w3.org/TR/2001/REC-SVG-20010904/DTD/svg10.dtd">
<svg version="1.0" xmlns="http://www.w3.org/2000/svg"
 width="215.000000pt" height="235.000000pt" viewBox="0 0 215.000000 235.000000"
 preserveAspectRatio="xMidYMid meet">

<g transform="translate(0.000000,235.000000) scale(0.100000,-0.100000)"
fill="#000000" stroke="none">
<path d="M930 2026 c-132 -38 -182 -101 -202 -251 l-11 -85 -36 -9 c-20 -6
-75 -20 -123 -32 -118 -29 -115 -50 10 -64 50 -6 62 -10 60 -23 -3 -17 -75
-71 -95 -72 -7 0 -33 16 -58 35 -55 41 -94 50 -192 41 -88 -7 -154 -33 -179
-71 -14 -22 -15 -32 -5 -65 13 -43 38 -65 141 -124 36 -21 83 -48 105 -61 67
-41 136 -29 186 34 28 36 39 32 39 -15 0 -19 11 -60 24 -92 13 -31 26 -83 30
-115 3 -32 15 -83 26 -115 10 -31 22 -79 25 -107 3 -27 13 -80 22 -118 l17
-67 -39 -40 c-22 -22 -54 -44 -72 -49 -50 -14 -118 6 -145 44 -19 25 -5 -65
16 -105 49 -97 164 -129 294 -80 68 25 79 23 134 -22 23 -18 42 -22 120 -24
103 -2 119 2 163 40 36 31 49 32 117 5 32 -13 76 -21 111 -21 103 0 185 71
200 175 l6 37 -35 -26 c-26 -20 -45 -26 -83 -26 -55 0 -87 17 -126 68 l-27 35
16 72 c8 40 19 95 24 122 5 28 20 86 32 130 16 57 23 115 26 200 3 109 5 120
22 123 12 2 29 -8 43 -25 64 -76 118 -82 212 -25 34 22 85 51 112 67 70 39
104 73 111 112 14 75 -63 123 -211 130 l-90 5 -68 -42 -68 -41 -33 20 c-40 25
-70 57 -59 64 4 2 35 8 67 12 68 8 106 20 106 34 0 7 -118 48 -230 79 -22 6
-25 15 -36 89 -12 87 -32 128 -86 180 -62 58 -212 87 -308 59z m-32 -476 c113
-8 191 -8 303 1 113 9 153 9 162 0 6 -6 13 -41 15 -77 l4 -67 -81 -76 c-97
-91 -111 -125 -111 -267 0 -106 20 -205 56 -275 13 -27 24 -50 24 -51 0 -2
-92 -1 -204 0 -114 2 -219 -1 -239 -6 -20 -6 -38 -8 -40 -5 -3 2 3 19 14 37
38 65 60 149 66 256 5 83 11 114 29 150 26 48 31 110 13 157 -25 66 -105 117
-177 113 -50 -4 -52 -2 -52 45 0 47 27 89 52 80 7 -2 82 -9 166 -15z m-533
-41 c22 -11 63 -42 90 -69 28 -26 65 -55 82 -64 l33 -16 -38 -49 c-20 -27 -47
-55 -59 -61 -51 -29 -109 -2 -100 46 3 19 0 20 -45 16 -49 -5 -53 -2 -49 39 1
12 -4 15 -23 12 -38 -8 -121 24 -135 51 -51 95 116 161 244 95z m1525 0 c89
-50 41 -140 -75 -140 -52 0 -54 -1 -52 -27 2 -26 0 -27 -43 -27 -44 0 -45 -1
-50 -35 -5 -34 -7 -35 -50 -37 -42 -3 -49 1 -104 52 l-58 54 53 34 c30 19 63
45 74 57 28 31 92 71 140 87 51 16 116 9 165 -18z m-1073 -119 c111 -67 98
-220 -22 -266 -140 -53 -257 112 -163 231 42 54 127 70 185 35z m588 -141 c4
-6 -3 -13 -15 -16 -15 -4 -18 -8 -9 -13 13 -9 5 -40 -11 -40 -5 0 -10 10 -10
23 -1 20 -4 18 -35 -18 -19 -22 -35 -46 -35 -52 0 -7 -4 -13 -10 -13 -31 0 19
103 61 126 29 16 56 18 64 3z m1 -104 c-22 -33 -39 -40 -66 -25 -25 13 -20 23
12 25 12 1 29 11 37 23 23 29 38 9 17 -23z m-464 -425 c38 -11 78 -54 78 -84
0 -20 2 -20 -48 4 -50 24 -119 26 -152 3 -37 -24 -134 -96 -145 -107 -16 -15
49 25 109 68 68 48 117 52 189 17 51 -25 67 -45 49 -63 -8 -8 -23 -6 -53 6
-49 20 -95 15 -130 -13 -38 -29 -125 -72 -176 -86 -27 -7 -38 -14 -26 -14 31
-1 112 31 174 69 65 39 104 46 152 26 74 -31 34 -74 -81 -87 -44 -5 -99 -18
-123 -29 -55 -24 -148 -26 -195 -4 -34 16 -45 34 -21 34 6 0 -3 9 -21 20 -29
18 -59 66 -48 77 2 2 23 -1 47 -7 73 -20 101 -8 193 85 82 82 94 89 166 93 14
1 42 -3 62 -8z m294 -1 c36 -9 57 -25 108 -80 88 -95 136 -112 233 -84 19 6
21 4 16 -17 -9 -34 -50 -85 -90 -109 -29 -18 -45 -21 -108 -17 -47 3 -84 11
-101 23 -15 9 -53 19 -88 22 -86 6 -104 11 -126 33 -28 28 -25 39 17 56 48 21
103 12 157 -25 52 -36 121 -71 138 -70 7 0 2 5 -11 10 -13 5 -57 30 -97 55
-96 60 -130 69 -186 49 -55 -19 -58 -19 -58 4 0 43 93 87 166 78 35 -3 56 -15
100 -53 30 -27 70 -57 87 -67 l32 -19 -30 24 c-16 12 -56 46 -88 75 -77 68
-120 77 -203 39 -68 -31 -67 -31 -58 -3 9 31 34 58 69 73 37 16 64 17 121 3z"/>
<path d="M568 453 c6 -2 18 -2 25 0 6 3 1 5 -13 5 -14 0 -19 -2 -12 -5z"/>
<path d="M1490 460 c-8 -5 -10 -10 -5 -10 6 0 17 5 25 10 8 5 11 10 5 10 -5 0
-17 -5 -25 -10z"/>
<path d="M545 840 c3 -5 8 -10 11 -10 2 0 4 5 4 10 0 6 -5 10 -11 10 -5 0 -7
-4 -4 -10z"/>
<path d="M605 740 c-3 -5 -1 -10 4 -10 6 0 11 5 11 10 0 6 -2 10 -4 10 -3 0
-8 -4 -11 -10z"/>
</g>
</svg>
